<?xml version="1.0" encoding="UTF-8" standalone="no"?>
<!-- Generator: Adobe Illustrator 19.0.0, SVG Export Plug-In . SVG Version: 6.00 Build 0)  -->

<svg
   xmlns:dc="http://purl.org/dc/elements/1.1/"
   xmlns:cc="http://creativecommons.org/ns#"
   xmlns:rdf="http://www.w3.org/1999/02/22-rdf-syntax-ns#"
   xmlns:svg="http://www.w3.org/2000/svg"
   xmlns="http://www.w3.org/2000/svg"
   xmlns:sodipodi="http://sodipodi.sourceforge.net/DTD/sodipodi-0.dtd"
   xmlns:inkscape="http://www.inkscape.org/namespaces/inkscape"
   version="1.1"
   id="Capa_1"
   x="0px"
   y="0px"
   viewBox="0 0 31.999999 32.000002"
   xml:space="preserve"
   sodipodi:docname="obabel_toggled.svg"
   width="32"
   height="32"
   inkscape:version="0.92.4 (5da689c313, 2019-01-14)"><metadata
   id="metadata157"><rdf:RDF><cc:Work
       rdf:about=""><dc:format>image/svg+xml</dc:format><dc:type
         rdf:resource="http://purl.org/dc/dcmitype/StillImage" /><dc:title></dc:title></cc:Work></rdf:RDF></metadata><defs
   id="defs155"><inkscape:path-effect
     effect="bspline"
     id="path-effect4827"
     is_visible="true"
     weight="33.333333"
     steps="2"
     helper_size="0"
     apply_no_weight="true"
     apply_with_weight="true"
     only_selected="false" /><inkscape:path-effect
     effect="bspline"
     id="path-effect4821"
     is_visible="true"
     weight="33.333333"
     steps="2"
     helper_size="0"
     apply_no_weight="true"
     apply_with_weight="true"
     only_selected="false" /></defs><sodipodi:namedview
   pagecolor="#ffffff"
   bordercolor="#666666"
   borderopacity="1"
   objecttolerance="10"
   gridtolerance="10"
   guidetolerance="10"
   inkscape:pageopacity="0"
   inkscape:pageshadow="2"
   inkscape:window-width="1340"
   inkscape:window-height="1001"
   id="namedview153"
   showgrid="false"
   showborder="false"
   fit-margin-top="0"
   fit-margin-left="0"
   fit-margin-right="0"
   fit-margin-bottom="0"
   inkscape:zoom="26.5625"
   inkscape:cx="15.964059"
   inkscape:cy="14.094917"
   inkscape:window-x="568"
   inkscape:window-y="0"
   inkscape:window-maximized="0"
   inkscape:current-layer="Capa_1"
   showguides="false" />




















<g
   id="g122"
   transform="translate(-116.42861,-158.03268)">
</g>
<g
   id="g124"
   transform="translate(-116.42861,-158.03268)">
</g>
<g
   id="g126"
   transform="translate(-116.42861,-158.03268)">
</g>
<g
   id="g128"
   transform="translate(-116.42861,-158.03268)">
</g>
<g
   id="g130"
   transform="translate(-116.42861,-158.03268)">
</g>
<g
   id="g132"
   transform="translate(-116.42861,-158.03268)">
</g>
<g
   id="g134"
   transform="translate(-116.42861,-158.03268)">
</g>
<g
   id="g136"
   transform="translate(-116.42861,-158.03268)">
</g>
<g
   id="g138"
   transform="translate(-116.42861,-158.03268)">
</g>
<g
   id="g140"
   transform="translate(-116.42861,-158.03268)">
</g>
<g
   id="g142"
   transform="translate(-116.42861,-158.03268)">
</g>
<g
   id="g144"
   transform="translate(-116.42861,-158.03268)">
</g>
<rect
   style="opacity:1;vector-effect:none;fill:#b2b2b2;fill-opacity:1;fill-rule:evenodd;stroke:#b2b2b2;stroke-width:2.6;stroke-linecap:butt;stroke-linejoin:round;stroke-miterlimit:0.5;stroke-dasharray:none;stroke-dashoffset:0;stroke-opacity:1"
   id="rect4893"
   width="30.272495"
   height="29.55986"
   x="0.67386764"
   y="1.1989068" /><g
   id="g146"
   transform="translate(-116.42861,-158.03268)">
</g>
<g
   id="g148"
   transform="translate(-116.42861,-158.03268)">
</g>
<g
   id="g150"
   transform="translate(-116.42861,-158.03268)">
</g>
<path
   style="opacity:1;fill:#8a8a8a;fill-opacity:1;fill-rule:nonzero;stroke:#8a8a8a;stroke-width:0.91500002;stroke-linecap:round;stroke-linejoin:round;stroke-miterlimit:4;stroke-dasharray:none;stroke-dashoffset:0;stroke-opacity:1;paint-order:fill markers stroke"
   d="m 8.2478703,13.803613 0.072965,-2.106508 8.2234667,-0.876934 8.223467,-0.8769329 -0.0737,2.1330129 -0.0737,2.133014 -0.207787,0.02554 c -0.11428,0.01405 -3.745892,0.386901 -8.070246,0.828553 -4.324355,0.44165 -7.9310785,0.812847 -8.0149449,0.824876 l -0.152482,0.02188 z"
   id="path4829"
   inkscape:connector-curvature="0" /><path
   style="opacity:1;fill:#8a8a8a;fill-opacity:1;fill-rule:nonzero;stroke:#8a8a8a;stroke-width:0.91500002;stroke-linecap:round;stroke-linejoin:round;stroke-miterlimit:4;stroke-dasharray:none;stroke-dashoffset:0;stroke-opacity:1;paint-order:fill markers stroke"
   d="m 3.8868611,25.8907 c 0.01118,-0.932826 0.02129,-1.083268 0.08225,-1.224144 0.09256,-0.21392 0.36287,-0.44653 0.602801,-0.518739 0.32365,-0.0974 1.379467,-0.19325 12.4274429,-1.128145 9.299543,-0.786941 10.204756,-0.869553 11.171765,-1.019571 l 0.141176,-0.0219 v 2.488015 2.488015 h -5.534119 -5.534118 v -0.42611 c 0,-0.265058 -0.02089,-0.496458 -0.05528,-0.612243 -0.234778,-0.790581 -1.189408,-0.91191 -1.582264,-0.201098 -0.107365,0.194259 -0.11347,0.229248 -0.125963,0.721803 l -0.01313,0.517647 H 9.6707701 3.8741131 Z"
   id="path4972"
   inkscape:connector-curvature="0" /><path
   style="opacity:1;fill:#8a8a8a;fill-opacity:1;fill-rule:nonzero;stroke:#8a8a8a;stroke-width:0;stroke-linecap:round;stroke-linejoin:round;stroke-miterlimit:4;stroke-dasharray:none;stroke-dashoffset:0;stroke-opacity:1;paint-order:fill markers stroke"
   d="m 11.300933,10.100259 c -0.177945,-0.0879 -0.301899,-0.2706409 -0.342694,-0.5052159 -0.01943,-0.111742 -0.05476,-1.029285 -0.0785,-2.038983 l -0.04317,-1.8358171 0.08814,-0.1783006 c 0.06228,-0.1259869 0.134079,-0.2035197 0.244727,-0.2642548 0.151314,-0.083057 0.19999,-0.086864 1.444274,-0.1129412 l 1.28768,-0.026987 0.01875,-0.552681 c 0.02035,-0.5996772 0.04053,-0.6606871 0.277011,-0.837934 0.101077,-0.075756 0.150567,-0.077863 2.06093,-0.087709 1.851204,-0.00954 1.964421,-0.00627 2.087455,0.06029 0.249623,0.1350447 0.280406,0.2157528 0.301316,0.7899937 l 0.01875,0.5150995 h 1.162921 1.162921 l 0.126648,0.090649 c 0.254771,0.1823525 0.262337,0.2321397 0.28993,1.9077355 0.01816,1.102508 0.01301,1.545541 -0.0193,1.663285 -0.06489,0.236429 -0.23639,0.412394 -0.466905,0.479071 -0.20923,0.06052 -8.873949,0.9772389 -9.383795,0.9927969 -0.0619,0.0019 -0.168593,-0.02426 -0.2371,-0.0581 z m 3.237232,-1.5242079 c 0.17318,-0.07919 0.226038,-0.355001 0.226038,-1.179468 0,-0.6400992 -0.0079,-0.7310936 -0.07502,-0.8655854 -0.0996,-0.1994998 -0.208605,-0.251023 -0.497842,-0.2352993 -0.380356,0.020677 -0.389716,0.039061 -0.430127,0.8448177 -0.05461,1.0887 -0.01579,1.349123 0.215209,1.444005 0.113239,0.04651 0.452698,0.04139 0.561749,-0.0085 z m 3.852917,0.0051 c 0.210857,-0.05877 0.237881,-0.178896 0.232622,-1.034023 -0.0046,-0.7515265 -0.05047,-1.1015552 -0.156822,-1.19731 -0.159778,-0.1438529 -0.593037,-0.1036501 -0.70332,0.065262 -0.04014,0.06147 -0.06988,0.2652433 -0.09733,0.666757 -0.06638,0.970859 -0.0059,1.415233 0.204192,1.50014 0.113325,0.0458 0.354762,0.04542 0.520665,-8.25e-4 z"
   id="path4978"
   inkscape:connector-curvature="0"
   inkscape:transform-center-x="1.9200001"
   inkscape:transform-center-y="0.45176473" /><path
   style="opacity:1;fill:#8a8a8a;fill-opacity:1;fill-rule:nonzero;stroke:#8a8a8a;stroke-width:0.91499996;stroke-linecap:round;stroke-linejoin:round;stroke-miterlimit:4;stroke-dasharray:none;stroke-dashoffset:0;stroke-opacity:1;paint-order:fill markers stroke"
   d="m 5.9648389,20.104426 0.065179,-2.107566 10.5057471,-1.017364 10.505748,-1.017362 -0.06577,2.134082 -0.06577,2.134083 -0.26541,0.02909 c -0.145971,0.016 -4.785666,0.450869 -10.31043,0.966369 -5.524765,0.515497 -10.1326515,0.948286 -10.2397524,0.961747 l -0.1947256,0.02448 z"
   id="path4829-7"
   inkscape:connector-curvature="0" /></svg>